HIERARCHY
ROOT Hips
{
  OFFSET 0.0 0.0 0.0
  CHANNELS 6 XPOSITION YPOSITION ZPOSITION ZROTATION XROTATION YROTATION 
  JOINT RightUpLeg
  {
    OFFSET -0.089458038 -0.086670642 0.001016508
    CHANNELS 3 ZROTATION XROTATION YROTATION 
    JOINT RightLeg
    {
      OFFSET 1.524e-006 -0.44256706 0.04075049
      CHANNELS 3 ZROTATION XROTATION YROTATION 
      JOINT RightFoot
      {
        OFFSET 0.001562862 -0.419119812 -0.041630854
        CHANNELS 3 ZROTATION XROTATION YROTATION 
        End Site
        {
          OFFSET 7.5692e-005 -0.04415155 0.084991702
        }
      }
    }
  }
  JOINT Spine
  {
    OFFSET 0.0 0.11890502 0.0
    CHANNELS 3 ZROTATION XROTATION YROTATION 
    JOINT Spine1
    {
      OFFSET 0.0 0.256575052 0.001270508
      CHANNELS 3 ZROTATION XROTATION YROTATION 
      End Site
      {
        OFFSET -0.002899918 0.215084406 0.0252476
      }
      JOINT RightArm
      {
        OFFSET -0.16272758 -0.05365633 0.001021842
        CHANNELS 3 ZROTATION XROTATION YROTATION 
        JOINT RightForeArm
        {
          OFFSET -0.263648698 -0.000263906 -0.014099794
          CHANNELS 3 ZROTATION XROTATION YROTATION 
          End Site
          {
            OFFSET -0.220319092 0.001914652 0.010174732
          }
        }
      }
      JOINT LeftArm
      {
        OFFSET 0.16272758 -0.05365633 0.001020826
        CHANNELS 3 ZROTATION XROTATION YROTATION 
        JOINT LeftForeArm
        {
          OFFSET 0.26260552 -0.000263144 -0.01410081
          CHANNELS 3 ZROTATION XROTATION YROTATION 
          End Site
          {
            OFFSET 0.220897958 0.001915922 0.01017524
          }
        }
      }
    }
  }
  JOINT LeftUpLeg
  {
    OFFSET 0.089458038 -0.086670642 0.001016508
    CHANNELS 3 ZROTATION XROTATION YROTATION 
    JOINT LeftLeg
    {
      OFFSET -3.048e-006 -0.442569346 0.040725598
      CHANNELS 3 ZROTATION XROTATION YROTATION 
      JOINT LeftFoot
      {
        OFFSET -0.002532888 -0.41911778 -0.041605708
        CHANNELS 3 ZROTATION XROTATION YROTATION 
        End Site
        {
          OFFSET -0.00040005 -0.044151042 0.084991194
        }
      }
    }
  }
}
MOTION
Frames: 9
Frame Time: 0.033333
-0.01397254 0.965725728383 0.95158814 0.00372868756293 5.99608646857 177.047136646 4.95110551849 7.01746569998 -1.12291287491 -1.11075417769 14.9297416765 -4.4365519367 -6.76183733255 -42.0530375877 -0.36537595373 1.54515698367 9.39608377419 1.9259494214 1.12583598243 -2.08391931719 1.84562106068 72.4234942227 -3.48432644965 15.4170466455 8.27052067916 10.3851387085 10.6440515431 -80.8019506738 -12.7933618107 -13.5627373707 -15.7715402936 36.725128035 6.73370762534 1.72534580498 -16.7485937317 3.49200870492 -0.845620321373 6.2482352815 2.95708152262 -3.3824778704 -28.1148310579 0.366098272915 
-0.01505458 0.966736648383 0.92530676 -0.0127525526511 5.59710139509 176.760938059 4.75954731368 9.08930070498 -1.21171739367 -1.08228157364 13.2865211056 -4.31829873717 -6.93320677883 -42.1246931022 -0.379136997319 1.49029039423 8.72055330584 1.94438644985 1.09791630353 -1.89580907726 1.85281453054 72.5584860814 -2.97873066096 15.8981395574 8.21483585441 10.1159626608 10.8592161623 -80.8547207153 -13.3870956411 -13.2894452804 -15.6244726604 37.3209732477 6.77449623441 1.54617713645 -16.2787245282 0.707672324728 -0.987936384076 0.331063191093 5.51009246903 -3.84121685383 -29.2573816871 0.379514018425 
-0.01679448 0.964666548383 0.89667842 -0.118474020084 5.33252249165 176.576673216 4.38585955334 10.5811130575 -1.30601125009 -1.04217054068 13.4614080993 -4.21602818029 -6.46820408504 -42.8674556839 -0.418050159165 1.44949004578 8.04312831377 1.90120898213 0.914915685433 -1.65076195352 1.82585790832 73.1623157852 -3.7642367799 16.045707502 8.26755381574 11.1881666105 10.3147117742 -80.9409723441 -14.2095315257 -12.9412712648 -15.3967012195 38.2533418807 6.84023723206 0.884202886056 -16.1628486613 0.149093011081 -0.27637453342 -1.48222084589 8.00519600444 -4.27125068662 -30.5632797055 0.374535530891 
-0.0192786 0.961059748383 0.86595458 -0.104212058159 5.20678340478 176.403746486 3.91876084525 11.7989323714 -1.56293073671 -0.85422337152 14.7112063589 -3.70646661302 -5.17583795209 -43.5697254891 -0.39846333774 1.67198697981 7.37305602034 1.90778005099 0.599463878863 -1.3095956053 1.87919101356 73.9007343666 -5.07879590502 15.5860835822 8.40218879712 12.5820545408 9.45753242483 -81.1706169644 -15.1531178907 -12.6817684725 -15.0842900744 39.482297818 6.93138952162 0.409746196599 -16.1018994683 -0.0189431394618 -0.0406823709398 -0.0246900999831 10.3689007875 -4.43519230217 -30.9042734847 0.3753969885 
-0.022479 0.958349568383 0.83357466 -0.0445447261886 5.22119510393 175.82655452 3.20385028091 13.0221424121 -1.74827368281 -0.581336290002 16.3285917393 -2.59014006818 -3.49037308806 -43.2679711467 -0.281396269924 2.01953944818 6.58715908651 2.15966376721 0.258560572971 -0.740861227761 2.18458264518 74.4973513906 -6.54339891827 14.5265368268 8.69768156363 13.8347001356 8.33123508447 -81.5421451043 -16.1406420088 -12.3466921985 -14.7135217931 40.6984915469 7.0273523988 0.00709692173082 -15.6880992876 -0.00851728674941 -0.0249143172843 2.55877797395 11.1233318936 -3.68402261141 -29.5128478376 0.354383404591 
-0.02630424 0.956845888383 0.79971392 -0.194141497072 5.37314248041 174.825494675 1.933151429 13.9923434629 -2.01975374536 -0.293163111719 18.7184219959 -0.885014397907 -1.58014676212 -41.9400321078 -0.138469812426 2.16058434864 5.70535989344 2.57757721587 -0.0644354176605 -0.081413006771 2.6475027716 74.9561488575 -8.21705054325 13.0857733082 9.17598434328 15.3806639353 6.59426632523 -81.8143759541 -17.1656826485 -11.5620246987 -14.3660769002 41.7604220383 7.11571669053 -0.617035874524 -15.2120129043 -0.199075321571 0.0262382850884 5.51521340336 10.814260711 -2.50839337599 -27.1018149662 0.291732987501 
-0.03052826 0.955586048383 0.76521056 -0.659678559782 5.60152436947 174.11620685 0.0579938622522 14.251190557 -3.43554737303 -0.0195596390731 22.4164947333 1.60284497484 1.02339274983 -39.7153063065 -0.0452401148183 1.89533309845 4.99146297186 2.77653763818 -0.303836189432 0.19585315315 2.8751169047 75.2904661268 -9.72160717494 11.2652290736 9.63847011236 17.2559606738 4.36199188418 -81.7913923675 -18.1993446945 -10.2688590067 -14.0987415885 42.8312044549 7.20773556035 -1.49399534497 -14.7038229244 -0.419953354025 -0.128524923592 8.36576681337 10.2810662623 -2.21804182093 -24.8334340108 0.291339637974 
-0.0349377 0.953381328383 0.73241662 -1.33362581163 5.85662168968 174.253001879 -2.24442150561 13.1825801406 -5.8076470989 0.290104254188 28.1786079492 4.14769939472 4.49733805899 -35.7681912116 -0.174269275125 1.18769166965 4.90131685453 2.5627774766 -0.267425224699 -0.269411342324 2.6511293886 75.4293102123 -10.882365381 8.93193058518 9.86956529406 19.0411142832 2.37470096072 -81.6755865101 -19.1554106688 -8.9842310512 -13.8501807593 44.0355238999 7.31598381341 -2.46127745043 -14.1863148589 -0.370808355358 -0.741951710151 11.1975350687 9.69539717777 -2.3881171598 -23.925573804 0.325685430978 
-0.03919474 0.949921848383 0.70318376 -2.06241297248 6.24810337347 174.771659124 -4.70845194916 10.5530811073 -7.48022851861 0.47120669335 36.1834189018 5.44113018341 8.18885381481 -28.9200864553 -0.8276133814 0.132379978409 5.7144222738 2.22365580954 0.183182071682 -1.20787114339 2.24659948218 75.2707405405 -12.1154168705 6.36389044783 9.90291198514 20.3704620486 1.13029524218 -81.8381586727 -19.875517513 -8.30896610646 -13.5713126732 45.1173336569 7.4195627784 -3.49959896608 -13.7572577432 -0.144649732902 -1.5019168703 14.4759029269 9.0686146233 -1.3575102361 -25.0217150054 0.17469565502 
